HIERARCHY
ROOT SpineBase
{
  OFFSET 0.000000 0.000000 0.000000
  CHANNELS 6 Xposition Yposition Zposition Zrotation Xrotation Yrotation
  JOINT SpineMid
  {
    OFFSET 0.000000 34.517764 0.000000
    CHANNELS 3 Zrotation Xrotation Yrotation
    JOINT SpineShoulder
    {
      OFFSET -0.071343 25.673634 -0.952785
      CHANNELS 3 Zrotation Xrotation Yrotation
      JOINT Neck
      {
        OFFSET -0.063336 8.505487 -0.695285
        CHANNELS 3 Zrotation Xrotation Yrotation
        JOINT Head
        {
          OFFSET 1.832481 10.282270 4.811474
          CHANNELS 3 Zrotation Xrotation Yrotation
          End Site
          {
            OFFSET 0 0 0
          }
        }
      }
      JOINT ShoulderLeft
      {
        OFFSET -14.563865 -6.712137 -2.007863
        CHANNELS 3 Zrotation Xrotation Yrotation
        JOINT ElbowLeft
        {
          OFFSET -7.713063 -24.806461 5.688734
          CHANNELS 3 Zrotation Xrotation Yrotation
          JOINT WristLeft
          {
            OFFSET 3.291987 -20.123493 9.269210
            CHANNELS 3 Zrotation Xrotation Yrotation
            JOINT HandLeft
            {
              OFFSET 0.943450 -6.244952 -2.580997
              CHANNELS 3 Zrotation Xrotation Yrotation
              JOINT HandTipLeft
              {
                OFFSET 0.092376 -1.971969 -0.708958
                CHANNELS 3 Zrotation Xrotation Yrotation
                End Site
                {
                  OFFSET 0 0 0
                }
              }
              JOINT ThumbLeft
              {
                OFFSET 0.184180 3.092524 -3.926077
                CHANNELS 3 Zrotation Xrotation Yrotation
                End Site
                {
                  OFFSET 0 0 0
                }
              }
            }
          }
        }
      }
      JOINT ShoulderRight
      {
        OFFSET 12.395544 -7.100131 -11.246848
        CHANNELS 3 Zrotation Xrotation Yrotation
        JOINT ElbowRight
        {
          OFFSET 8.590858 -26.038709 0.585478
          CHANNELS 3 Zrotation Xrotation Yrotation
          JOINT WristRight
          {
            OFFSET 1.136352 -21.397583 7.095305
            CHANNELS 3 Zrotation Xrotation Yrotation
            JOINT HandRight
            {
              OFFSET 0.667679 -3.346485 1.163891
              CHANNELS 3 Zrotation Xrotation Yrotation
              JOINT HandTipRight
              {
                OFFSET -0.370834 -4.363505 -1.029333
                CHANNELS 3 Zrotation Xrotation Yrotation
                End Site
                {
                  OFFSET 0 0 0
                }
              }
              JOINT ThumbRight
              {
                OFFSET -2.040806 -0.185316 1.018097
                CHANNELS 3 Zrotation Xrotation Yrotation
                End Site
                {
                  OFFSET 0 0 0
                }
              }
            }
          }
        }
      }
    }
  }
  JOINT HipLeft
  {
    OFFSET -6.733235 1.301195 -1.397216
    CHANNELS 3 Zrotation Xrotation Yrotation
    JOINT KneeLeft
    {
      OFFSET -1.204393 -31.046351 -3.232480
      CHANNELS 3 Zrotation Xrotation Yrotation
      JOINT AnkleLeft
      {
        OFFSET -3.885787 -33.067317 -0.417787
        CHANNELS 3 Zrotation Xrotation Yrotation
        JOINT FootLeft
        {
          OFFSET -0.244587 -5.630861 -8.806846
          CHANNELS 3 Zrotation Xrotation Yrotation
          End Site
          {
            OFFSET 0 0 0
          }
        }
      }
    }
  }
  JOINT HipRight
  {
    OFFSET 6.158678 2.030820 -5.804014
    CHANNELS 3 Zrotation Xrotation Yrotation
    JOINT KneeRight
    {
      OFFSET 1.160367 -30.912459 -2.136115
      CHANNELS 3 Zrotation Xrotation Yrotation
      JOINT AnkleRight
      {
        OFFSET 0.723312 -33.925295 -0.915990
        CHANNELS 3 Zrotation Xrotation Yrotation
        JOINT FootRight
        {
          OFFSET -4.959253 -1.783709 -14.131981
          CHANNELS 3 Zrotation Xrotation Yrotation
          End Site
          {
            OFFSET 0 0 0
          }
        }
      }
    }
  }
}
MOTION
Frames: 14
Frame Time: 0.033333
20.546933 68.443333 248.036504 -0.000000 0.000000 18.871789 0.000000 0.000000 -18.871789 -0.000000 0.000000 0.000000 -0.000000 0.000000 0.000000 0.000000 0.000000 0.000000 -0.000000 0.000000 0.000000 -0.000000 0.000000 0.000000 -0.000000 0.000000 0.000000 -0.000000 0.000000 0.000000 0.000000 0.000000 0.000000 0.000000 0.000000 0.000000 -0.000000 0.000000 0.000000 -0.000000 0.000000 0.000000 -0.000000 0.000000 0.000000 -0.000000 0.000000 0.000000 0.000000 0.000000 0.000000 0.000000 0.000000 0.000000 0.000000 0.000000 -18.871789 -0.000000 0.000000 0.000000 -0.000000 0.000000 0.000000 0.000000 0.000000 0.000000 0.000000 0.000000 -18.871789 -0.000000 0.000000 0.000000 -0.000000 0.000000 0.000000 0.000000 0.000000 0.000000
20.604202 68.446058 248.028262 0.058869 -0.015281 18.786661 -0.050811 0.033426 -18.786639 -0.000000 0.000000 0.000000 -0.969372 -0.122682 0.473964 0.000000 0.000000 0.000000 -0.000000 0.000000 0.000000 -0.000000 0.000000 0.000000 -0.408481 0.705215 0.277321 0.405094 -0.707166 -0.272308 0.000000 0.000000 0.000000 0.000000 0.000000 0.000000 -0.000000 0.000000 0.000000 -0.000000 0.000000 0.000000 -2.064916 -3.251738 -1.416847 4.731483 0.911065 0.770443 0.000000 0.000000 0.000000 0.000000 0.000000 0.000000 -0.050811 0.033426 -18.786639 -0.000000 0.000000 0.000000 -3.180458 7.660924 4.388166 0.000000 0.000000 0.000000 -0.050811 0.033426 -18.786639 -0.000000 0.000000 0.000000 1.534246 -3.868688 -1.933421 0.000000 0.000000 0.000000
20.658254 68.450901 248.014169 0.096795 -0.033124 18.717124 -0.081047 0.062434 -18.717052 -0.000000 0.000000 0.000000 -1.713880 -0.210667 0.834922 0.000000 0.000000 0.000000 -0.000000 0.000000 0.000000 -0.000000 0.000000 0.000000 -0.792255 1.365904 0.541140 0.391685 -0.457356 -0.343871 0.000000 0.000000 0.000000 0.000000 0.000000 0.000000 -0.000000 0.000000 0.000000 -0.000000 0.000000 0.000000 -3.685374 -5.483768 -2.527404 8.587008 0.606043 1.165943 0.000000 0.000000 0.000000 0.000000 0.000000 0.000000 -0.081047 0.062434 -18.717052 -0.000000 0.000000 0.000000 -5.968469 13.087040 7.990646 0.000000 0.000000 0.000000 -0.081047 0.062434 -18.717052 -0.000000 0.000000 0.000000 3.091902 -8.209970 -3.969658 0.000000 0.000000 0.000000
20.709089 68.457862 247.994223 0.113762 -0.053528 18.663219 -0.090651 0.087117 -18.663097 -0.000000 0.000000 0.000000 -2.238780 -0.260411 1.086406 0.000000 0.000000 0.000000 -0.000000 0.000000 0.000000 -0.292283 -0.729070 -0.255118 -0.860284 2.690071 1.049435 0.559566 -0.581110 -0.486974 0.000000 0.000000 0.000000 0.000000 0.000000 0.000000 -0.000000 0.000000 0.000000 -0.361554 -0.751062 -0.161821 -4.523432 -6.149542 -3.114973 11.343358 -0.698763 1.524554 0.000000 0.000000 0.000000 0.000000 0.000000 0.000000 -0.090651 0.087117 -18.663097 -0.000000 0.000000 0.000000 -8.145368 16.650197 10.705045 0.000000 0.000000 0.000000 -0.090651 0.087117 -18.663097 -0.000000 0.000000 0.000000 4.519628 -12.625129 -5.924442 0.000000 0.000000 0.000000
20.756708 68.466942 247.968425 0.109756 -0.076490 18.624966 -0.079579 0.107538 -18.624818 -0.000000 0.000000 0.000000 -2.548064 -0.269524 1.231003 0.000000 0.000000 0.000000 -0.000000 0.000000 0.000000 -0.360027 -0.902010 -0.315249 -1.100610 3.381578 1.328225 0.702497 -0.617898 -0.604866 0.000000 0.000000 0.000000 0.000000 0.000000 0.000000 -0.000000 0.000000 0.000000 -0.449016 -0.912693 -0.200451 -5.294327 -6.696138 -3.572319 12.751726 -2.739618 2.056172 0.000000 0.000000 0.000000 0.000000 0.000000 0.000000 -0.079579 0.107538 -18.624818 -0.000000 0.000000 0.000000 -9.628399 18.735006 12.524996 0.000000 0.000000 0.000000 -0.079579 0.107538 -18.624818 -0.000000 0.000000 0.000000 5.644003 -16.457053 -7.546782 0.000000 0.000000 0.000000
20.801111 68.478140 247.936775 0.084770 -0.102011 18.602364 -0.047800 0.123723 -18.602237 -0.000000 0.000000 0.000000 -2.644221 -0.236615 1.270212 0.000000 0.000000 0.000000 -0.000000 0.000000 0.000000 -0.412682 -1.039899 -0.362651 -1.299006 3.945441 1.556575 0.817313 -0.558477 -0.694235 0.000000 0.000000 0.000000 0.000000 0.000000 0.000000 -0.000000 0.000000 0.000000 -0.520059 -1.030543 -0.231223 -5.762145 -6.662618 -3.767793 12.616094 -5.245117 2.820696 0.000000 0.000000 0.000000 0.000000 0.000000 0.000000 -0.047800 0.123723 -18.602237 -0.000000 0.000000 0.000000 -10.405490 19.615660 13.483905 0.000000 0.000000 0.000000 -0.047800 0.123723 -18.602237 -0.000000 0.000000 0.000000 6.324396 -18.958171 -8.578347 0.000000 0.000000 0.000000
20.840904 68.497665 247.913384 0.009640 -0.135718 18.601240 0.034155 0.131704 -18.601268 -0.000000 0.000000 0.000000 -2.182352 -0.272916 1.062318 0.000000 0.000000 0.000000 -0.000000 0.000000 0.000000 -0.437614 -1.148949 -0.392355 -1.490230 3.929893 1.666111 -0.149355 1.223399 -0.257263 0.000000 0.000000 0.000000 0.000000 0.000000 0.000000 -0.000000 0.000000 0.000000 -0.566930 -1.081161 -0.250043 -5.561612 -6.296647 -3.608038 9.154467 -5.289270 3.598587 0.000000 0.000000 0.000000 0.000000 0.000000 0.000000 0.034155 0.131704 -18.601268 -0.000000 0.000000 0.000000 -9.841076 17.908942 12.903190 0.000000 0.000000 0.000000 0.034155 0.131704 -18.601268 -0.000000 0.000000 0.000000 7.072596 -21.896821 -9.764886 0.000000 0.000000 0.000000
20.870090 68.519450 247.871922 -0.060270 -0.176344 18.599980 0.113369 0.147909 -18.600219 -0.000000 0.000000 0.000000 -1.791419 -0.090536 0.850990 0.000000 0.000000 0.000000 -0.000000 0.000000 0.000000 -0.462964 -1.225105 -0.416842 -1.774432 4.766205 1.955128 -0.795627 6.310639 0.251586 0.000000 0.000000 0.000000 0.000000 0.000000 0.000000 -0.000000 0.000000 0.000000 -0.588456 -1.130964 -0.260220 -6.070535 -5.398651 -3.594797 3.582645 -11.243013 5.619461 0.000000 0.000000 0.000000 0.000000 0.000000 0.000000 0.113369 0.147909 -18.600219 -0.000000 0.000000 0.000000 -10.758291 18.193745 14.122035 0.000000 0.000000 0.000000 0.113369 0.147909 -18.600219 -0.000000 0.000000 0.000000 7.088057 -21.964579 -9.804884 0.000000 0.000000 0.000000
20.910732 68.534725 247.814734 -0.142972 -0.215567 18.608632 0.204286 0.158673 -18.609184 -0.000000 0.000000 0.000000 -1.299291 0.099541 0.589967 0.000000 0.000000 0.000000 -0.000000 0.000000 0.000000 -0.473965 -1.252146 -0.426482 -1.451286 4.810814 1.822863 -1.074988 1.380969 -0.015633 0.000000 0.000000 0.000000 0.000000 0.000000 0.000000 -0.212281 -0.741523 -0.250915 -0.460750 -0.457780 -0.036675 -5.908985 -2.849151 -2.912540 -3.855881 -16.598120 6.307326 0.000000 0.000000 0.000000 0.000000 0.000000 0.000000 0.204286 0.158673 -18.609184 -0.000000 0.000000 0.000000 -8.725050 15.891414 11.582821 0.000000 0.000000 0.000000 -0.600054 0.008751 -18.573590 0.714701 0.398308 -0.036903 4.928026 -14.056696 -8.480216 0.000000 0.000000 0.000000
20.953702 68.545414 247.744122 -0.217798 -0.227770 18.604598 0.279084 0.146381 -18.605387 -0.000000 0.000000 0.000000 -0.886942 0.401168 0.345608 0.000000 0.000000 0.000000 -0.000000 0.000000 0.000000 -0.466707 -1.218218 -0.417463 -1.324195 2.788441 1.436721 1.395898 4.159101 -0.513177 0.000000 0.000000 0.000000 0.000000 0.000000 0.000000 -0.000000 0.000000 0.000000 -0.765503 -1.118113 -0.319768 -5.067411 -0.427531 -2.006621 -7.493973 -18.695168 5.419370 0.000000 0.000000 0.000000 0.000000 0.000000 0.000000 0.279084 0.146381 -18.605387 -0.000000 0.000000 0.000000 -8.368622 15.303585 11.148790 0.000000 0.000000 0.000000 -0.620006 -0.077395 -18.569605 0.781038 0.498431 -0.038638 5.373758 -15.455797 -6.595318 0.000000 0.000000 0.000000
20.973473 68.558765 247.684256 -0.292334 -0.242687 18.620536 0.354522 0.136638 -18.621578 -0.000000 0.000000 0.000000 -0.634856 0.590777 0.194401 0.000000 0.000000 0.000000 -1.141351 0.016085 -0.265775 0.678991 -1.236093 -0.152927 -1.549408 3.164393 1.599666 2.539671 1.064225 -1.120603 0.000000 0.000000 0.000000 0.000000 0.000000 0.000000 -0.408537 -0.699647 -0.242767 -0.259016 -0.127638 -0.023743 -4.794983 0.366152 -1.686923 -4.395639 -18.673019 4.601099 0.000000 0.000000 0.000000 0.000000 0.000000 0.000000 0.354522 0.136638 -18.621578 -0.000000 0.000000 0.000000 -8.251448 15.110842 11.005382 0.000000 0.000000 0.000000 -0.565378 -0.142361 -18.588471 0.783002 0.557657 -0.036964 4.748330 -13.336110 -3.865715 0.000000 0.000000 0.000000
21.016710 68.553190 247.598447 -0.315642 -0.220186 18.646802 0.369475 0.107703 -18.647755 -0.000000 0.000000 0.000000 -0.614664 0.709085 0.164425 0.000000 0.000000 0.000000 -2.156549 -0.326023 -0.396792 1.692059 -0.888279 -0.033434 -0.785595 3.108025 1.248173 -0.106265 -7.804526 -0.715723 0.000000 0.000000 0.000000 0.000000 0.000000 0.000000 -0.496362 -0.608335 -0.214785 0.494106 0.610169 0.209519 -6.735729 1.697591 -1.939305 -0.970155 -21.065686 4.313379 0.000000 0.000000 0.000000 0.000000 0.000000 0.000000 0.369475 0.107703 -18.647755 -0.000000 0.000000 0.000000 -8.360649 15.320640 11.135961 0.000000 0.000000 0.000000 -0.594744 -0.202612 -18.614867 0.814760 0.601833 -0.037966 3.136549 -8.723550 -0.989104 0.000000 0.000000 0.000000
21.064748 68.529936 247.511660 -0.322014 -0.179530 18.580208 0.362434 0.067567 -18.580926 -0.000000 0.000000 0.000000 -0.577679 0.796798 0.131785 0.000000 0.000000 0.000000 -2.789394 -0.557968 -0.475763 2.321822 -0.651491 0.030918 -0.508249 2.518316 1.034701 -0.286480 -16.122554 -1.103921 0.000000 0.000000 0.000000 0.000000 0.000000 0.000000 -0.000000 0.000000 0.000000 -0.000000 0.000000 0.000000 -8.265582 3.858666 -1.879601 6.928367 -23.511015 4.398437 0.000000 0.000000 0.000000 0.000000 0.000000 0.000000 -0.512281 -0.062834 -18.483271 0.788267 0.400968 -0.100377 -8.738590 15.916328 11.598980 0.000000 0.000000 0.000000 -0.600676 -0.212085 -18.546662 0.824176 0.571437 -0.039589 3.224800 -9.006581 -0.703413 0.000000 0.000000 0.000000
21.157016 68.510852 247.396759 -0.293924 -0.127286 18.726943 0.319230 0.026179 -18.727342 -0.000000 0.000000 0.000000 -0.606334 0.797207 0.145260 0.000000 0.000000 0.000000 -3.517512 -0.823132 -0.569857 3.045739 -0.379122 0.101817 -0.178781 2.022466 0.814703 -1.257997 -20.716195 -1.095434 0.000000 0.000000 0.000000 0.000000 0.000000 0.000000 -0.794494 -0.197602 -0.084619 0.794206 0.198756 0.081871 -10.683327 7.315235 -1.647248 11.840518 -25.558509 4.951431 0.000000 0.000000 0.000000 0.000000 0.000000 0.000000 -0.748344 -0.133746 -18.609231 0.960753 0.492203 -0.123240 -10.792698 19.093916 14.065871 0.000000 0.000000 0.000000 -0.739552 -0.279041 -18.690744 0.905184 0.628367 -0.043898 4.638331 -12.986457 -1.477332 0.000000 0.000000 0.000000
